<svg id="Layer_1" data-name="Layer 1" xmlns="http://www.w3.org/2000/svg" viewBox="0 0 74.94 15.75"><defs><style>.cls-1,.cls-2{fill:#38a2db;}.cls-2,.cls-3{fill-rule:evenodd;}.cls-3,.cls-4{fill:#fff;}</style></defs><g id="Page-1"><g id="Our-services-h"><g id="Group"><g id="logo-dark-svg"><path id="Shape" class="cls-1" d="M16.07,22.94a4.23,4.23,0,0,1,1.31-3.12,4.52,4.52,0,0,1,6.32,0,4.37,4.37,0,0,1,0,6.24,4.54,4.54,0,0,1-5.84.42v4.4H16.07Zm4.47,2.64a2.6,2.6,0,0,0,1.9-.77,2.63,2.63,0,0,0,0-3.74,2.61,2.61,0,0,0-1.9-.78,2.57,2.57,0,0,0-1.89.78,2.61,2.61,0,0,0,0,3.74A2.56,2.56,0,0,0,20.54,25.58Z" transform="translate(-16.07 -15.12)"/><path id="Shape-2" data-name="Shape" class="cls-1" d="M33.5,19.84a4.47,4.47,0,0,1-6.33,6.32,4.47,4.47,0,0,1,6.33-6.32Zm-3.17.48a2.68,2.68,0,1,0,1.9,4.58,2.68,2.68,0,0,0-1.9-4.58Z" transform="translate(-16.07 -15.12)"/><polygon id="Path" class="cls-2" points="21.29 12.35 19.59 12.35 19.59 0 21.29 0 21.29 12.35"/><path id="Shape-3" data-name="Shape" class="cls-1" d="M45.36,26.59a4.27,4.27,0,0,1-2.68.88,4.47,4.47,0,0,1-3.16-7.63A4.47,4.47,0,0,1,47.15,23v4.47H45.36v-.88Zm-2.68-6.27a2.68,2.68,0,0,0,0,5.36,2.68,2.68,0,1,0,0-5.36Z" transform="translate(-16.07 -15.12)"/><path id="Path-2" data-name="Path" class="cls-2" d="M49.71,23v4.47H48V23a4.43,4.43,0,0,1,1.25-3.16,4,4,0,0,1,3-1.31v1.79a2.41,2.41,0,0,0-1.8.78A2.67,2.67,0,0,0,49.71,23Z" transform="translate(-16.07 -15.12)"/><path id="Path-3" data-name="Path" class="cls-3" d="M60.19,23.89h1.86a4.28,4.28,0,0,1-1.23,2.27,4.41,4.41,0,0,1-3.2,1.31,4.36,4.36,0,0,1-3.18-1.31,4.42,4.42,0,0,1,0-6.32,4.51,4.51,0,0,1,7.61,2.27H60.19a2.82,2.82,0,0,0-.65-1,2.74,2.74,0,0,0-3.83,0,2.58,2.58,0,0,0-.79,1.9,2.55,2.55,0,0,0,.79,1.89,2.72,2.72,0,0,0,3.83,0A2.7,2.7,0,0,0,60.19,23.89Z" transform="translate(-16.07 -15.12)"/><path id="Shape-4" data-name="Shape" class="cls-4" d="M70.06,26.59A4.48,4.48,0,0,1,62.91,23a4.47,4.47,0,0,1,4.47-4.47A4.47,4.47,0,0,1,71.85,23v4.47H70.06v-.88Zm-2.68-6.27a2.68,2.68,0,1,0,0,5.36,2.68,2.68,0,0,0,0-5.36Z" transform="translate(-16.07 -15.12)"/><path id="Shape-5" data-name="Shape" class="cls-4" d="M72.27,22.94a4.23,4.23,0,0,1,1.31-3.12,4.52,4.52,0,0,1,6.32,0,4.37,4.37,0,0,1,0,6.24,4.54,4.54,0,0,1-5.84.42v4.4H72.27V22.94Zm4.47,2.64a2.6,2.6,0,0,0,1.9-.77,2.61,2.61,0,0,0,0-3.74,2.61,2.61,0,0,0-1.9-.78,2.57,2.57,0,0,0-1.89.78,2.61,2.61,0,0,0,0,3.74A2.56,2.56,0,0,0,76.74,25.58Z" transform="translate(-16.07 -15.12)"/><path id="Shape-6" data-name="Shape" class="cls-4" d="M88.53,24.79h2.12a4.63,4.63,0,0,1-1,1.37,4.47,4.47,0,1,1-6.32-6.32A4.47,4.47,0,0,1,91,23a5.08,5.08,0,0,1-.08.89H84a2.66,2.66,0,0,0,.64,1,2.61,2.61,0,0,0,1.9.78,2.57,2.57,0,0,0,1.89-.78Zm.55-2.68a2.82,2.82,0,0,0-.65-1,2.57,2.57,0,0,0-1.89-.78,2.61,2.61,0,0,0-1.9.78,2.66,2.66,0,0,0-.64,1Z" transform="translate(-16.07 -15.12)"/></g></g></g></g></svg>